<svg xmlns="http://www.w3.org/2000/svg" viewBox="0 0 720 310" role="img" aria-labelledby="artd-t">
 <title id="artd-t">Ilustração: celular apreendido com conteúdo oculto, a nota do STF e as datas de 1º e 2 de outubro e da reunião marcada</title>
 <defs>
  <radialGradient id="gld" cx="25%" cy="40%" r="60%"><stop offset="0" stop-color="#0F2A5E" stop-opacity=".55"/><stop offset="1" stop-color="#201E1D" stop-opacity="0"/></radialGradient>
  <filter id="shd" x="-20%" y="-20%" width="140%" height="140%"><feDropShadow dx="0" dy="8" stdDeviation="9" flood-color="#000" flood-opacity=".45"/></filter>
 </defs>
 <rect width="720" height="310" fill="#201E1D"/><rect width="720" height="310" fill="url(#gld)"/>
 <g transform="translate(60 26) rotate(-5 68 125)" filter="url(#shd)">
  <rect width="136" height="250" rx="20" fill="#121110" stroke="#5C5958" stroke-width="2"/>
  <rect x="7" y="22" width="122" height="214" rx="6" fill="#2B2826"/>
  <rect x="50" y="9" width="36" height="5" rx="2.5" fill="#444141"/>
  <rect x="15" y="34" width="78" height="24" rx="8" fill="#E9E6E5"/><rect x="23" y="43" width="58" height="6" fill="#121110"/>
  <rect x="45" y="66" width="76" height="24" rx="8" fill="#4A6FB5"/><rect x="53" y="75" width="54" height="6" fill="#121110"/>
  <rect x="15" y="98" width="96" height="36" rx="8" fill="#E9E6E5"/><rect x="23" y="107" width="76" height="6" fill="#121110"/><rect x="23" y="119" width="46" height="6" fill="#121110"/>
  <rect x="45" y="142" width="76" height="24" rx="8" fill="#4A6FB5"/><rect x="53" y="151" width="50" height="6" fill="#121110"/>
  <rect x="15" y="174" width="70" height="24" rx="8" fill="#E9E6E5"/><rect x="23" y="183" width="48" height="6" fill="#121110"/>
  <rect x="15" y="208" width="106" height="18" fill="#FFDF00"/>
  <text x="68" y="221" fill="#201E1D" font-family="Archivo,system-ui,sans-serif" font-size="10" font-weight="900" text-anchor="middle" textLength="84" lengthAdjust="spacingAndGlyphs">SOB SIGILO</text>
 </g>
 <g transform="translate(216 58) rotate(4 78 100)" filter="url(#shd)">
  <path d="M0 0 H136 L156 20 V204 H0 Z" fill="#F3F2F2"/><path d="M136 0 V20 H156" fill="#D6D3D2"/>
  <rect x="16" y="20" width="62" height="7" fill="#201E1D"/>
  <rect x="16" y="34" width="38" height="4" fill="#9A9695"/>
  <g fill="#BDB9B8"><rect x="16" y="56" width="124" height="4"/><rect x="16" y="68" width="116" height="4"/><rect x="16" y="80" width="124" height="4"/></g>
  <rect x="12" y="91" width="132" height="12" fill="#FFDF00" opacity=".9"/>
  <g fill="#BDB9B8"><rect x="16" y="95" width="118" height="4" fill="#5C5958"/><rect x="16" y="112" width="124" height="4"/><rect x="16" y="124" width="104" height="4"/><rect x="16" y="136" width="120" height="4"/><rect x="16" y="148" width="72" height="4"/></g>
  <rect x="16" y="172" width="48" height="4" fill="#9A9695"/>
 </g>
 <g font-family="Archivo,system-ui,sans-serif">
  <rect x="226" y="28" width="112" height="20" fill="#FFDF00"/><text x="282" y="42" fill="#201E1D" font-size="10" font-weight="900" text-anchor="middle" textLength="96" lengthAdjust="spacingAndGlyphs">NOTA DO STF · 2 OUT</text>
  <line x1="470" y1="70" x2="470" y2="250" stroke="#5C5958" stroke-width="2"/>
  <line x1="470" y1="190" x2="470" y2="250" stroke="#FFDF00" stroke-width="2" stroke-dasharray="4 5"/>
  <circle cx="470" cy="70" r="7" fill="#F3F2F2"/><circle cx="470" cy="160" r="7" fill="#F3F2F2"/><circle cx="470" cy="250" r="8" fill="#201E1D" stroke="#FFDF00" stroke-width="3"/>
  <text x="494" y="72" fill="#FFFFFF" font-size="28" font-weight="900" style="font-stretch:72%">1º OUT</text>
  <text x="494" y="94" fill="#A9A5A3" font-size="14" font-weight="600">PF pede reunião ao STF</text>
  <text x="494" y="162" fill="#FFFFFF" font-size="28" font-weight="900" style="font-stretch:72%">2 OUT</text>
  <text x="494" y="184" fill="#A9A5A3" font-size="14" font-weight="600">nota e ofício do STF</text>
  <text x="494" y="252" fill="#FFDF00" font-size="28" font-weight="900" style="font-stretch:72%">2ª SEMANA</text>
  <text x="494" y="274" fill="#A9A5A3" font-size="14" font-weight="600">reunião STF–PF marcada</text>
 </g>
</svg>